# Blender v2.79 (sub 0) OBJ File: 'Tooth.blend'
# www.blender.org
o TootHLow.002_Cube.004
v 20.120827 -23.909187 -19.969210
v 20.120825 -23.909187 20.030788
v -19.879175 -23.909187 20.030785
v -19.879169 -23.909187 -19.969219
v 23.326572 49.557846 -20.796452
v 22.129627 52.841274 20.021957
v -20.890533 49.135689 21.629784
v -26.134539 49.830208 -21.115740
v 24.615726 4.777104 0.030789
v 0.120830 5.888789 -28.685459
v 24.635534 29.273766 -24.469212
v 0.120825 5.746183 28.747034
v 24.628128 29.294052 24.525635
v -24.374069 4.777101 0.030783
v -24.380322 29.271158 24.535561
v -27.605152 29.569981 -24.990959
v 26.344334 43.150696 -0.252233
v 0.968969 44.262756 -22.013132
v 0.507906 46.316826 20.667439
v -26.194660 42.100662 1.063033
v 0.070005 29.268265 -34.675583
v -34.795162 29.319607 0.136655
v 0.120818 29.271999 34.671799
v 34.761841 29.271999 0.030798
v 0.438966 52.343937 0.073868
v 0.120829 -5.369017 0.030785
v 23.464968 -11.767210 10.523742
v -10.372123 -25.002087 -23.313358
v 25.151218 39.915306 -23.748482
v -10.372128 -25.017498 23.374924
v 24.521608 41.642418 23.370289
v -23.223314 -11.767200 -10.462170
v -23.755299 39.693253 24.216011
v -29.478680 40.323158 -24.459879
v 25.493578 56.187183 10.509803
v -14.645519 52.836422 -25.220448
v -11.383492 52.479828 24.973927
v -28.471806 53.248280 -10.309490
v 23.464968 -11.767204 -10.462160
v 10.613781 -25.002087 -23.313354
v 23.464970 1.083986 -23.313347
v 10.613778 -25.017498 23.374929
v 23.464968 1.083981 23.374935
v -23.223316 -11.767200 10.523736
v -23.223316 1.083979 23.374924
v -23.223305 1.083981 -23.313354
v 26.670713 52.901993 -11.289401
v 13.819526 52.901993 -24.140596
v 12.616330 56.184578 23.375978
v -24.260176 52.484245 12.132555
v -14.440019 29.313061 -32.722744
v 13.377377 29.271999 -31.973328
v -0.240145 37.356682 -29.212980
v 0.120832 24.147583 -31.973333
v -33.852264 29.501183 -13.224353
v -31.883301 29.271999 13.287327
v -31.883295 16.015455 0.030783
v -32.744446 33.266624 0.362337
v -13.135723 29.271999 32.034912
v 13.377361 29.271999 32.034916
v 0.120821 24.025948 32.034912
v 0.176583 38.030518 28.152369
v 32.124947 29.271999 13.287339
v 32.124954 29.271999 -13.225744
v 32.124954 16.015457 0.030794
v 32.124950 33.117538 0.030802
v 0.395813 50.349472 13.708428
v 0.612168 49.470459 -13.904781
v 14.845617 50.537830 -0.199912
v -14.568478 49.564911 0.971358
v -13.135716 -2.732128 0.030784
v 13.377372 -2.732128 0.030787
v 0.120830 5.400002 -13.225756
v 0.120827 5.278361 13.287329
v 12.639969 -12.350834 12.767317
v 12.639971 -12.348476 -12.705739
v -12.398316 -12.348488 -12.705746
v -15.108919 59.175285 -12.956964
v 16.063097 59.240364 -13.315597
v 14.866159 62.523788 12.541102
v 31.075657 42.121979 -12.816666
v 29.803347 8.667837 -12.488350
v 29.803345 8.667829 12.549936
v 13.437857 43.426239 29.709795
v 12.646304 4.408939 29.728336
v -12.404660 4.408946 29.728327
v -29.963810 41.954330 13.185697
v -29.561689 8.667825 12.549927
v -29.561682 8.667834 -12.488359
v 12.646106 4.410031 -29.666262
v 13.912291 42.121979 -29.980042
v -16.103249 42.125202 -31.780201
v -12.404444 4.410031 -29.666269
v -34.502544 42.663380 -11.944543
v -12.799717 41.954426 30.347921
v 30.601639 43.426956 12.546431
v -13.627065 58.818207 14.148932
v -12.398318 -12.350842 12.767316
v 24.040348 15.177994 -23.888721
v 24.040344 15.177991 23.950312
v -23.798695 15.177990 23.950302
v -23.798683 15.177991 -23.888731
v 0.116619 26.709482 -33.297195
v -33.201740 22.643728 0.030783
v 0.120819 26.648973 33.353359
v 33.443394 22.643730 0.030796
v 30.964153 18.969919 -12.857046
v 30.964146 18.969913 12.918637
v 13.011833 16.840469 30.881626
v -12.770192 16.840473 30.881618
v -30.722494 18.969912 12.918627
v -30.722488 18.969917 -12.857059
v 13.011742 16.841015 -30.819796
v -12.770077 16.841015 -30.819801
v -28.128681 10.396276 0.030783
v 0.120823 14.886065 30.390972
v 28.370338 10.396281 0.030791
v 21.792900 -11.412605 -21.641277
v 21.792898 -11.412605 21.702862
v -21.551245 -11.412605 21.702854
v -21.551235 -11.412605 -21.641289
v 0.120831 15.018187 -30.329397
v 26.634155 -1.549685 -11.475256
v 26.634155 -1.549690 11.536839
v 11.630041 -10.304281 26.551632
v -11.388394 -10.304277 26.551626
v -26.392504 -1.549688 11.536832
v -26.392498 -1.549685 -11.475266
v 11.629944 -10.296028 -26.489809
v -11.388283 -10.296028 -26.489813
vt 0.373446 0.082325
vt 0.421600 0.124942
vt 0.391344 0.138771
vt 0.337756 0.156419
vt 0.485079 0.439339
vt 0.451249 0.417202
vt 0.491672 0.385234
vt 0.529026 0.405517
vt 0.611568 0.565897
vt 0.566922 0.547868
vt 0.598446 0.511054
vt 0.641012 0.510387
vt 0.555295 0.355556
vt 0.490777 0.345452
vt 0.333427 0.455676
vt 0.365497 0.487885
vt 0.324600 0.519003
vt 0.288848 0.500258
vt 0.139076 0.372814
vt 0.116794 0.322215
vt 0.142515 0.300612
vt 0.176123 0.329262
vt 0.274348 0.578513
vt 0.213873 0.572295
vt 0.250453 0.484164
vt 0.408730 0.713033
vt 0.419122 0.776205
vt 0.353047 0.807119
vt 0.315541 0.676984
vt 0.616771 0.852414
vt 0.666112 0.875264
vt 0.540435 0.891840
vt 0.479062 0.885688
vt 0.272067 0.385770
vt 0.297278 0.423137
vt 0.215268 0.440273
vt 0.393470 0.298636
vt 0.412664 0.335008
vt 0.353042 0.377246
vt 0.336888 0.349865
vt 0.431625 0.377110
vt 0.396298 0.432233
vt 0.367451 0.396685
vt 0.546379 0.251936
vt 0.570899 0.302232
vt 0.483534 0.307499
vt 0.461105 0.263744
vt 0.741774 0.451339
vt 0.691013 0.427236
vt 0.673848 0.323955
vt 0.708930 0.328259
vt 0.636207 0.445664
vt 0.580079 0.475038
vt 0.576720 0.420697
vt 0.624749 0.372284
vt 0.693507 0.602073
vt 0.658001 0.582423
vt 0.685636 0.510275
vt 0.728675 0.534895
vt 0.604751 0.719213
vt 0.565982 0.697123
vt 0.615128 0.641889
vt 0.641870 0.657500
vt 0.531226 0.663240
vt 0.500348 0.629041
vt 0.554126 0.604165
vt 0.594318 0.628877
vt 0.547473 0.513818
vt 0.515396 0.474553
vt 0.457806 0.614007
vt 0.405878 0.587436
vt 0.463545 0.527929
vt 0.500307 0.563263
vt 0.380524 0.535462
vt 0.433320 0.483936
vt 0.134002 0.246929
vt 0.174570 0.197019
vt 0.291923 0.255338
vt 0.181154 0.258347
vt 0.731531 0.888273
vt 0.790642 0.821086
vt 0.774531 0.944737
vt 0.628562 0.964938
vt 0.893248 0.637299
vt 0.865653 0.578385
vt 0.831264 0.456220
vt 0.932639 0.508193
vt 0.863550 0.711951
vt 0.971061 0.649276
vt 0.734876 0.704598
vt 0.832956 0.660838
vt 0.851357 0.608087
vt 0.687776 0.850156
vt 0.729934 0.812792
vt 0.098875 0.450814
vt 0.025724 0.359762
vt 0.048646 0.211483
vt 0.356140 0.641631
vt 0.333782 0.570697
vt 0.468205 0.667831
vt 0.421617 0.654981
vt 0.498888 0.746428
vt 0.482838 0.706453
vt 0.694716 0.765567
vt 0.648977 0.739332
vt 0.670357 0.672767
vt 0.701223 0.688688
vt 0.659829 0.816410
vt 0.610354 0.793427
vt 0.553200 0.772698
vt 0.774230 0.647875
vt 0.730317 0.625184
vt 0.769054 0.569146
vt 0.809865 0.598290
vt 0.825238 0.543443
vt 0.787789 0.490135
vt 0.736803 0.343238
vt 0.801133 0.402657
vt 0.455961 0.166427
vt 0.508730 0.205212
vt 0.428186 0.222463
vt 0.400153 0.180762
vt 0.597933 0.194341
vt 0.656173 0.260410
vt 0.670532 0.288762
vt 0.349621 0.216086
vt 0.371212 0.260939
vt 0.322075 0.320887
vt 0.306821 0.289465
vt 0.228314 0.294428
vt 0.253760 0.340693
vt 0.198054 0.379721
vt 0.486258 0.814205
vt 0.549538 0.839940
vt 0.398735 0.852100
vt 0.374031 0.834251
vt 0.183511 0.641420
vt 0.177189 0.507998
vt 0.150545 0.442145
vt 0.155753 0.622386
vt 0.137682 0.596766
vt 0.104318 0.513707
vt 0.286976 0.124805
vt 0.352710 0.017318
vt 0.494472 0.059304
vt 0.544639 0.162814
vn 0.4666 -0.6981 -0.5430
vn 0.3221 -0.8798 0.3494
vn -0.5208 -0.8526 0.0419
vn -0.6623 -0.5877 -0.4647
vn -0.0942 0.9930 0.0710
vn -0.6791 0.7335 -0.0275
vn -0.5932 0.5388 0.5981
vn 0.0345 0.7160 0.6972
vn 0.9359 0.3085 0.1702
vn 0.7033 0.7022 -0.1107
vn 0.6130 0.5130 0.6009
vn 0.6915 0.2273 0.6856
vn -0.1491 0.3814 0.9123
vn -0.6848 0.2424 0.6872
vn -0.9518 0.3057 -0.0228
vn -0.6431 0.7507 0.1509
vn -0.5811 0.6168 -0.5309
vn -0.7335 0.1954 -0.6510
vn -0.1624 -0.2029 -0.9656
vn 0.3231 -0.8793 -0.3499
vn -0.5204 -0.8529 -0.0420
vn -0.7571 -0.2376 -0.6086
vn -0.1481 0.3604 -0.9209
vn -0.2575 -0.0271 -0.9658
vn -0.7195 -0.1395 -0.6803
vn 0.1552 0.3900 -0.9076
vn 0.3071 0.0479 -0.9504
vn 0.0315 0.0617 -0.9976
vn 0.0423 0.4404 -0.8968
vn 0.1624 -0.2029 -0.9656
vn -0.3231 -0.8793 -0.3499
vn 0.0000 -0.4099 -0.9121
vn 0.0000 -0.1938 -0.9810
vn -0.9346 -0.1980 -0.2955
vn -0.9626 -0.1329 -0.2361
vn -0.7030 -0.1492 -0.6953
vn -0.9342 -0.1194 0.3362
vn -0.9361 0.0232 0.3508
vn -0.9968 -0.0360 0.0707
vn -0.9817 -0.1887 0.0258
vn -0.9054 0.3739 0.2009
vn -0.7431 0.6592 0.1146
vn -0.9539 0.2707 0.1291
vn -0.2906 -0.1225 0.9490
vn -0.3033 0.0572 0.9511
vn -0.7090 0.0109 0.7051
vn -0.7111 -0.0798 0.6985
vn 0.2906 -0.1224 0.9489
vn 0.3011 0.0638 0.9514
vn 0.0006 0.0986 0.9951
vn 0.0000 -0.1642 0.9864
vn 0.1309 0.3807 0.9153
vn -0.0747 0.7213 0.6886
vn -0.0376 0.7200 0.6930
vn 0.0056 0.4370 0.8994
vn 0.9352 -0.1160 0.3346
vn 0.9417 0.0229 0.3356
vn 0.7062 0.0121 0.7078
vn 0.7111 -0.0798 0.6985
vn 0.9352 -0.1161 -0.3345
vn 0.9433 0.0088 -0.3317
vn 0.9994 0.0342 0.0008
vn 0.9890 -0.1481 0.0000
vn 0.9382 0.2996 -0.1730
vn 0.7154 0.6968 0.0508
vn 0.8162 0.5775 -0.0150
vn 0.9594 0.2820 0.0025
vn 0.0325 0.9995 0.0000
vn -0.0855 0.9924 0.0887
vn 0.0898 0.9933 -0.0724
vn -0.0128 0.9850 -0.1722
vn -0.0501 0.9977 -0.0459
vn 0.0879 0.9921 -0.0889
vn -0.0298 0.9993 -0.0229
vn -0.1422 0.9898 0.0089
vn 0.4682 -0.6977 0.5421
vn 0.1501 -0.9886 -0.0011
vn -0.8261 -0.5634 0.0000
vn -0.6622 -0.5878 0.4647
vn -0.4682 -0.6977 0.5421
vn -0.1501 -0.9886 -0.0011
vn 0.0000 -1.0000 -0.0023
vn 0.0000 -0.9691 0.2467
vn -0.4666 -0.6981 -0.5430
vn -0.3221 -0.8798 0.3494
vn 0.0000 -0.4108 0.9117
vn 0.0000 -0.9686 -0.2487
vn 0.8261 -0.5634 0.0000
vn 0.6623 -0.5877 -0.4647
vn 0.5208 -0.8526 0.0419
vn 0.5204 -0.8529 -0.0420
vn 0.6622 -0.5878 0.4647
vn -0.0239 0.7318 -0.6811
vn 0.0226 0.7507 -0.6602
vn 0.6164 0.5110 -0.5991
vn -0.0157 0.7264 -0.6870
vn 0.7053 -0.0089 -0.7088
vn 0.6970 0.2001 -0.6886
vn 0.9500 -0.3117 0.0190
vn 0.9547 -0.2265 -0.1930
vn 0.9733 -0.2295 0.0000
vn 0.9212 -0.3890 0.0000
vn 0.7571 -0.2376 -0.6086
vn 0.7309 -0.1749 -0.6597
vn 0.7111 -0.0800 -0.6985
vn 0.9500 -0.3117 -0.0190
vn 0.9547 -0.2265 0.1930
vn 0.7309 -0.1749 0.6597
vn 0.7571 -0.2376 0.6085
vn 0.1635 -0.2028 0.9655
vn 0.2028 -0.1629 0.9656
vn 0.0000 -0.1678 0.9858
vn 0.0000 -0.1937 0.9810
vn -0.1635 -0.2028 0.9655
vn -0.2028 -0.1629 0.9656
vn -0.7309 -0.1749 0.6597
vn -0.7571 -0.2376 0.6085
vn -0.9500 -0.3117 -0.0190
vn -0.9547 -0.2265 0.1930
vn -0.9733 -0.2295 0.0000
vn -0.9212 -0.3890 0.0000
vn -0.9500 -0.3117 0.0190
vn -0.9547 -0.2265 -0.1930
vn -0.7309 -0.1749 -0.6597
vn 0.2898 -0.1236 -0.9490
vn 0.2017 -0.1631 -0.9658
vn 0.0000 -0.1686 -0.9857
vn 0.0190 -0.1858 -0.9824
vn -0.2653 -0.1668 -0.9496
vn -0.2017 -0.1631 -0.9658
s 1
f 98/1/1 30/2/2 3/3/3 44/4/4
f 97/5/5 50/6/6 7/7/7 37/8/8
f 96/9/9 35/10/10 6/11/11 31/12/12
f 95/13/13 37/8/8 7/7/7 33/14/14
f 94/15/15 38/16/16 8/17/17 34/18/18
f 130/19/19 28/20/20 4/21/21 121/22/22
f 92/23/23 51/24/24 16/25/25 34/18/18
f 91/26/26 52/27/27 21/28/28 53/29/29
f 129/30/30 40/31/31 10/32/32 122/33/33
f 112/34/34 55/35/35 16/25/25 102/36/36
f 111/37/37 56/38/38 22/39/39 104/40/40
f 87/41/41 50/6/6 20/42/42 58/43/43
f 110/44/44 59/45/45 15/46/46 101/47/47
f 109/48/48 60/49/49 23/50/50 105/51/51
f 84/52/52 49/53/53 19/54/54 62/55/55
f 108/56/56 63/57/57 13/58/58 100/59/59
f 107/60/60 64/61/61 24/62/62 106/63/63
f 81/64/64 47/65/65 17/66/66 66/67/67
f 80/68/68 67/69/69 19/54/54 49/53/53
f 79/70/70 68/71/71 25/72/72 69/73/73
f 78/74/74 38/16/16 20/42/42 70/75/75
f 77/76/76 71/77/77 14/78/78 32/79/79
f 76/80/80 72/81/81 26/82/82 73/83/83
f 75/84/84 42/85/85 12/86/86 74/87/87
f 72/88/81 75/84/84 74/87/87 26/89/82
f 9/90/88 27/91/89 75/84/84 72/88/81
f 27/91/89 2/92/90 42/85/85 75/84/84
f 40/31/31 76/80/80 73/83/83 10/32/32
f 1/93/91 39/94/92 76/80/80 40/31/31
f 39/94/92 9/90/88 72/81/81 76/80/80
f 28/20/20 77/76/76 32/79/79 4/21/21
f 10/95/32 73/96/83 77/76/76 28/20/20
f 73/96/83 26/97/82 71/77/77 77/76/76
f 68/71/71 78/74/74 70/75/75 25/72/72
f 18/98/93 36/99/94 78/74/74 68/71/71
f 36/99/94 8/17/17 38/16/16 78/74/74
f 47/65/65 79/70/70 69/73/73 17/66/66
f 5/100/95 48/101/96 79/70/70 47/65/65
f 48/101/96 18/98/93 68/71/71 79/70/70
f 35/10/10 80/68/68 49/53/53 6/11/11
f 17/66/66 69/73/73 80/68/68 35/10/10
f 69/73/73 25/72/72 67/69/69 80/68/68
f 64/61/61 81/64/64 66/67/67 24/62/62
f 11/102/97 29/103/98 81/64/64 64/61/61
f 29/103/98 5/100/95 47/65/65 81/64/64
f 123/104/99 82/105/100 65/106/101 117/107/102
f 118/108/103 41/109/104 82/105/100 123/104/99
f 99/110/105 11/102/97 64/61/61 107/60/60
f 124/111/106 83/112/107 43/113/108 119/114/109
f 117/107/102 65/106/101 83/112/107 124/111/106
f 106/63/63 24/62/62 63/57/57 108/56/56
f 60/49/49 84/52/52 62/55/55 23/50/50
f 13/58/58 31/12/12 84/52/52 60/49/49
f 31/12/12 6/11/11 49/53/53 84/52/52
f 125/115/110 85/116/111 61/117/112 116/118/113
f 119/114/109 43/113/108 85/116/111 125/115/110
f 100/59/59 13/58/58 60/49/49 109/48/48
f 126/119/114 86/120/115 45/121/116 120/122/117
f 116/123/113 61/124/112 86/120/115 126/119/114
f 105/125/51 23/50/50 59/45/45 110/44/44
f 56/38/38 87/41/41 58/43/43 22/39/39
f 15/46/46 33/14/14 87/41/41 56/38/38
f 33/14/14 7/7/7 50/6/6 87/41/41
f 127/126/118 88/127/119 57/128/120 115/129/121
f 120/122/117 45/121/116 88/127/119 127/126/118
f 101/47/47 15/46/46 56/38/38 111/37/37
f 128/130/122 89/131/123 46/132/124 121/22/22
f 115/129/121 57/128/120 89/131/123 128/130/122
f 104/40/40 22/39/39 55/35/35 112/34/34
f 113/133/125 90/134/126 54/135/127 103/136/128
f 99/110/105 41/109/104 90/134/126 113/133/125
f 118/108/103 1/93/91 40/31/31 129/30/30
f 48/101/96 91/26/26 53/29/29 18/98/93
f 5/100/95 29/103/98 91/26/26 48/101/96
f 29/103/98 11/102/97 52/27/27 91/26/26
f 36/99/94 92/23/23 34/18/18 8/17/17
f 18/98/93 53/29/29 92/23/23 36/99/94
f 53/29/29 21/137/28 51/24/24 92/23/23
f 114/138/129 93/139/130 46/132/124 102/36/36
f 103/140/128 54/141/127 93/139/130 114/138/129
f 122/142/33 10/95/32 28/20/20 130/19/19
f 55/35/35 94/15/15 34/18/18 16/25/25
f 22/39/39 58/43/43 94/15/15 55/35/35
f 58/43/43 20/42/42 38/16/16 94/15/15
f 59/45/45 95/13/13 33/14/14 15/46/46
f 23/50/50 62/55/55 95/13/13 59/45/45
f 62/55/55 19/54/54 37/8/8 95/13/13
f 63/57/57 96/9/9 31/12/12 13/58/58
f 24/62/62 66/67/67 96/9/9 63/57/57
f 66/67/67 17/66/66 35/10/10 96/9/9
f 67/69/69 97/5/5 37/8/8 19/54/54
f 25/72/72 70/75/75 97/5/5 67/69/69
f 70/75/75 20/42/42 50/6/6 97/5/5
f 71/143/77 98/1/1 44/4/4 14/78/78
f 26/144/82 74/145/87 98/1/1 71/143/77
f 74/145/87 12/146/86 30/2/2 98/1/1
f 21/137/28 103/140/128 114/138/129 51/24/24
f 51/24/24 114/138/129 102/36/36 16/25/25
f 11/102/97 99/110/105 113/133/125 52/27/27
f 52/27/27 113/133/125 103/136/128 21/28/28
f 57/128/120 104/40/40 112/34/34 89/131/123
f 45/121/116 101/47/47 111/37/37 88/127/119
f 61/124/112 105/125/51 110/44/44 86/120/115
f 43/113/108 100/59/59 109/48/48 85/116/111
f 65/106/101 106/63/63 108/56/56 83/112/107
f 41/109/104 99/110/105 107/60/60 82/105/100
f 82/105/100 107/60/60 106/63/63 65/106/101
f 83/112/107 108/56/56 100/59/59 43/113/108
f 85/116/111 109/48/48 105/51/51 61/117/112
f 86/120/115 110/44/44 101/47/47 45/121/116
f 88/127/119 111/37/37 104/40/40 57/128/120
f 89/131/123 112/34/34 102/36/36 46/132/124
f 54/141/127 122/142/33 130/19/19 93/139/130
f 41/109/104 118/108/103 129/30/30 90/134/126
f 14/78/78 115/129/121 128/130/122 32/79/79
f 32/79/79 128/130/122 121/22/22 4/21/21
f 3/3/3 120/122/117 127/126/118 44/4/4
f 44/4/4 127/126/118 115/129/121 14/78/78
f 12/146/86 116/123/113 126/119/114 30/2/2
f 30/2/2 126/119/114 120/122/117 3/3/3
f 2/92/90 119/114/109 125/115/110 42/85/85
f 42/85/85 125/115/110 116/118/113 12/86/86
f 9/90/88 117/107/102 124/111/106 27/91/89
f 27/91/89 124/111/106 119/114/109 2/92/90
f 1/93/91 118/108/103 123/104/99 39/94/92
f 39/94/92 123/104/99 117/107/102 9/90/88
f 90/134/126 129/30/30 122/33/33 54/135/127
f 93/139/130 130/19/19 121/22/22 46/132/124
