# Blender v2.79 (sub 0) OBJ File: 'Guy.blend'
# www.blender.org
o Propel.001_Circle.002
v 0.000063 0.002394 -0.019513
v -0.009652 0.002394 -0.016910
v -0.016763 0.002394 -0.009798
v -0.019366 0.002394 -0.000084
v -0.016763 0.002394 0.009631
v -0.009652 0.002394 0.016742
v 0.000063 0.002394 0.019345
v 0.009777 0.002394 0.016742
v 0.016889 0.002394 0.009631
v 0.019492 0.002394 -0.000084
v 0.016889 0.002394 -0.009798
v 0.009777 0.002394 -0.016910
v 0.000063 0.707657 -0.019513
v -0.009652 0.707657 -0.016910
v -0.016763 0.707657 -0.009798
v -0.019366 0.707657 -0.000084
v -0.016763 0.707657 0.009631
v -0.009652 0.707657 0.016742
v 0.000063 0.707657 0.019345
v 0.009777 0.707657 0.016742
v 0.016889 0.707657 0.009631
v 0.019492 0.707657 -0.000084
v 0.016889 0.707657 -0.009798
v 0.009777 0.707657 -0.016910
v 0.000063 0.733081 -0.019513
v -0.009652 0.733081 -0.016910
v -0.016763 0.733081 -0.009798
v -0.019366 0.733081 -0.000084
v -0.016763 0.733081 0.009631
v -0.009652 0.733081 0.016742
v 0.000063 0.733081 0.019345
v 0.009777 0.733081 0.016742
v 0.016889 0.733081 0.009631
v 0.019492 0.733081 -0.000084
v 0.016889 0.733081 -0.009798
v 0.009777 0.733081 -0.016910
v -0.045692 0.708915 -0.188052
v 0.000063 0.708915 -0.200312
v -0.173340 0.708915 0.100030
v -0.185600 0.708915 0.054275
v -0.139845 0.708915 0.133525
v 0.173466 0.708915 0.100031
v 0.139971 0.708915 0.133525
v 0.185726 0.708915 0.054276
v 0.045818 0.708915 -0.188052
v -0.045692 0.731823 -0.188052
v 0.000063 0.731823 -0.200312
v -0.173340 0.731823 0.100030
v -0.185600 0.731823 0.054275
v -0.139845 0.731823 0.133525
v 0.173466 0.731823 0.100031
v 0.139971 0.731823 0.133525
v 0.185726 0.731823 0.054276
v 0.045818 0.731823 -0.188052
v -0.027987 0.713346 -0.419264
v 0.000063 0.713346 -0.426780
v -0.369467 0.713346 0.213264
v -0.376982 0.713346 0.185214
v -0.348933 0.713346 0.233798
v 0.369592 0.713346 0.213264
v 0.349058 0.713346 0.233798
v 0.377108 0.713346 0.185215
v 0.028113 0.713346 -0.419264
v -0.027987 0.727390 -0.419264
v 0.000063 0.727390 -0.426780
v -0.369467 0.727390 0.213264
v -0.376982 0.727390 0.185214
v -0.348933 0.727390 0.233798
v 0.369592 0.727390 0.213264
v 0.349058 0.727390 0.233798
v 0.377108 0.727390 0.185215
v 0.028113 0.727390 -0.419264
v -0.009652 0.749602 -0.016910
v 0.000063 0.749602 -0.019513
v -0.016763 0.749602 -0.009798
v -0.019366 0.749602 -0.000084
v -0.016763 0.749602 0.009631
v -0.009652 0.749602 0.016742
v 0.000063 0.749602 0.019345
v 0.009777 0.749602 0.016742
v 0.016889 0.749602 0.009631
v 0.019492 0.749602 -0.000084
v 0.016889 0.749602 -0.009798
v 0.009777 0.749602 -0.016910
vt 0.545650 0.186044
vt 0.545649 0.179143
vt 0.941236 0.178487
vt 0.941235 0.185392
vt 0.545650 0.220550
vt 0.545650 0.213649
vt 0.941234 0.213010
vt 0.941235 0.219914
vt 0.545650 0.206748
vt 0.545650 0.199846
vt 0.941234 0.199201
vt 0.941235 0.206105
vt 0.545650 0.241254
vt 0.545650 0.234353
vt 0.941236 0.233723
vt 0.941236 0.240628
vt 0.545649 0.172241
vt 0.941237 0.171582
vt 0.545650 0.192945
vt 0.941234 0.192296
vt 0.545650 0.227452
vt 0.941235 0.226819
vt 0.545649 0.255060
vt 0.545650 0.248155
vt 0.941236 0.247533
vt 0.941238 0.254438
vt 0.958691 0.192298
vt 0.958691 0.199202
vt 0.958691 0.226818
vt 0.958692 0.233722
vt 0.958693 0.247529
vt 0.958695 0.254433
vt 0.981997 0.067645
vt 0.979193 0.078111
vt 0.784392 0.078111
vt 0.797599 0.028814
vt 0.958691 0.219914
vt 0.520522 0.165366
vt 0.520522 0.151510
vt 0.615847 0.152195
vt 0.615847 0.164681
vt 0.981997 0.087174
vt 0.979193 0.076707
vt 0.784392 0.076707
vt 0.797599 0.126005
vt 0.983492 0.088125
vt 0.980688 0.077658
vt 0.785887 0.077658
vt 0.799095 0.126955
vt 0.981997 0.066240
vt 0.797599 0.027410
vt 0.958691 0.206106
vt 0.520406 0.165395
vt 0.520406 0.151538
vt 0.615732 0.152224
vt 0.615732 0.164710
vt 0.958693 0.171585
vt 0.958692 0.178490
vt 0.970032 0.192299
vt 0.970032 0.199203
vt 0.784392 0.076733
vt 0.797599 0.126031
vt 0.548443 0.106955
vt 0.540347 0.076734
vt 0.900155 0.152225
vt 0.900155 0.164710
vt 0.773774 0.162295
vt 0.773774 0.154640
vt 0.541842 0.077658
vt 0.549938 0.107880
vt 0.742119 0.154640
vt 0.742119 0.162295
vt 0.742234 0.154611
vt 0.742234 0.162265
vt 0.799056 0.127514
vt 0.785848 0.078216
vt 0.541803 0.078215
vt 0.549900 0.108437
vt 0.983454 0.088683
vt 0.980650 0.078217
vt 0.995476 0.151539
vt 0.995476 0.165395
vt 0.981997 0.088578
vt 0.797599 0.127408
vt 0.979193 0.076733
vt 0.981997 0.087200
vt 0.983492 0.067191
vt 0.799095 0.028360
vt 0.981997 0.066267
vt 0.797599 0.027436
vt 0.520406 0.165337
vt 0.520406 0.151481
vt 0.615728 0.152166
vt 0.615728 0.164651
vt 0.983493 0.088475
vt 0.980688 0.078009
vt 0.785887 0.078009
vt 0.799095 0.127306
vt 0.983454 0.067750
vt 0.799056 0.028919
vt 0.995592 0.151510
vt 0.995592 0.165366
vt 0.900271 0.164681
vt 0.900271 0.152196
vt 0.995476 0.151481
vt 0.995476 0.165338
vt 0.900152 0.164652
vt 0.900152 0.152166
vt 0.983493 0.067542
vt 0.799095 0.028712
vt 0.773888 0.162265
vt 0.758061 0.162265
vt 0.758061 0.154611
vt 0.773888 0.154611
vt 0.757939 0.154582
vt 0.773766 0.154582
vt 0.773766 0.162236
vt 0.757939 0.162236
vt 0.757946 0.162295
vt 0.757946 0.154640
vt 0.742112 0.154582
vt 0.742112 0.162236
vt 0.549900 0.047994
vt 0.548443 0.046512
vt 0.540347 0.078111
vt 0.548443 0.047889
vt 0.548443 0.046485
vt 0.540347 0.076707
vt 0.548443 0.108333
vt 0.548443 0.106929
vt 0.541842 0.078009
vt 0.549939 0.108231
vt 0.549938 0.047436
vt 0.549938 0.047787
vt 0.981117 0.048238
vt 0.971129 0.054004
vt 0.959596 0.054004
vt 0.949608 0.048238
vt 0.943842 0.038250
vt 0.943842 0.026717
vt 0.949608 0.016729
vt 0.959596 0.010963
vt 0.971129 0.010963
vt 0.981117 0.016729
vt 0.986883 0.026717
vt 0.986883 0.038250
vt 0.970032 0.226817
vt 0.970032 0.233721
vt 0.970034 0.247528
vt 0.970035 0.254431
vt 0.958692 0.185393
vt 0.970033 0.185395
vt 0.970031 0.219914
vt 0.958691 0.213010
vt 0.970032 0.206106
vt 0.970031 0.213010
vt 0.958692 0.240626
vt 0.970033 0.240624
vt 0.970034 0.178491
vt 0.970035 0.171586
vn -0.8660 0.0000 0.5000
vn -0.5000 0.0000 0.8660
vn -0.1585 -0.2708 0.9495
vn -0.5550 -0.7676 0.3204
vn 0.5000 0.0000 -0.8660
vn 0.0000 0.0000 -1.0000
vn 0.0000 -0.7676 -0.6409
vn 0.7430 -0.2708 -0.6120
vn -0.5000 0.0000 -0.8660
vn -0.8660 0.0000 -0.5000
vn -0.7430 -0.2708 -0.6120
vn 0.8660 0.0000 0.5000
vn 1.0000 0.0000 0.0000
vn 0.9015 -0.2708 -0.3375
vn 0.5550 -0.7676 0.3204
vn 0.0000 0.0000 1.0000
vn -1.0000 0.0000 0.0000
vn -0.9015 -0.2708 -0.3375
vn 0.8660 0.0000 -0.5000
vn 0.5000 0.0000 0.8660
vn 0.1585 -0.2708 0.9495
vn -0.9015 0.2708 -0.3375
vn 0.9015 0.2708 -0.3375
vn 0.1585 0.2708 0.9495
vn -0.0124 -0.9999 0.0071
vn -0.3322 -0.6771 -0.6566
vn 0.7430 0.2708 -0.6120
vn -0.1585 0.2708 0.9495
vn 0.4025 0.6771 0.6160
vn 0.4025 -0.6771 0.6160
vn 0.5550 0.7676 0.3204
vn 0.0124 0.9999 0.0071
vn 0.3322 0.6771 -0.6566
vn -0.7430 0.2708 -0.6120
vn 0.0000 0.7676 -0.6409
vn 0.0000 0.9999 -0.0143
vn -0.7348 0.6771 0.0406
vn -0.4025 0.6771 0.6160
vn 0.3322 -0.6771 -0.6566
vn -0.7572 0.6532 0.0000
vn -0.6557 0.6532 -0.3786
vn -0.0124 0.9999 0.0071
vn -0.3322 0.6771 -0.6566
vn -0.7583 0.5901 -0.2769
vn -0.6604 0.6469 0.3813
vn -0.4025 -0.6771 0.6160
vn 0.1393 -0.5901 0.7952
vn 0.1393 0.5901 0.7952
vn 0.0000 0.6469 -0.7626
vn -0.6190 0.5901 -0.5182
vn 0.7583 0.5901 -0.2769
vn 0.7583 -0.5901 -0.2769
vn -0.1393 0.5901 0.7952
vn -0.1393 -0.5901 0.7952
vn 0.7348 -0.6771 0.0406
vn 0.0000 -0.9999 -0.0143
vn 0.0000 -0.6469 -0.7626
vn 0.6190 -0.5901 -0.5182
vn -0.5550 0.7676 0.3204
vn 0.7348 0.6771 0.0406
vn 0.0124 -0.9999 0.0071
vn -0.7348 -0.6771 0.0406
vn -0.7583 -0.5901 -0.2769
vn -0.6604 -0.6469 0.3813
vn -0.6190 -0.5901 -0.5182
vn 0.6604 -0.6469 0.3813
vn 0.6604 0.6469 0.3813
vn 0.6190 0.5901 -0.5182
vn -0.3786 0.6532 -0.6557
vn -0.6557 0.6532 0.3786
vn -0.3786 0.6532 0.6557
vn 0.0000 0.6532 0.7571
vn 0.3786 0.6532 0.6557
vn 0.6557 0.6532 0.3786
vn 0.7571 0.6532 0.0000
vn 0.6557 0.6532 -0.3786
vn 0.3786 0.6532 -0.6557
vn 0.0000 0.6532 -0.7571
s 1
f 5/1/1 6/2/2 18/3/3 17/4/4
f 12/5/5 1/6/6 13/7/7 24/8/8
f 2/9/9 3/10/10 15/11/10 14/12/11
f 9/13/12 10/14/13 22/15/14 21/16/15
f 6/2/2 7/17/16 19/18/16 18/3/3
f 3/10/10 4/19/17 16/20/18 15/11/10
f 10/14/13 11/21/19 23/22/19 22/15/14
f 7/23/16 8/24/20 20/25/21 19/26/16
f 4/19/17 5/1/1 17/4/4 16/20/18
f 11/21/19 12/5/5 24/8/8 23/22/19
f 1/6/6 2/9/9 14/12/11 13/7/7
f 8/24/20 9/13/12 21/16/15 20/25/21
f 15/11/10 16/20/18 28/27/22 27/28/10
f 22/15/14 23/22/19 35/29/19 34/30/23
f 19/26/16 20/25/21 32/31/24 31/32/16
f 16/33/18 17/34/4 39/35/25 40/36/26
f 23/22/19 24/8/8 36/37/27 35/29/19
f 18/38/3 30/39/28 50/40/29 41/41/30
f 34/42/23 33/43/31 51/44/32 53/45/33
f 26/46/34 25/47/35 47/48/36 46/49/37
f 33/43/31 32/50/24 52/51/38 51/44/32
f 14/12/11 15/11/10 27/28/10 26/52/34
f 22/53/14 34/54/23 53/55/33 44/56/39
f 18/3/3 19/18/16 31/57/16 30/58/28
f 27/28/10 28/27/22 76/59/40 75/60/41
f 48/61/42 49/62/43 67/63/44 66/64/45
f 52/65/38 43/66/46 61/67/47 70/68/48
f 46/49/37 47/48/36 65/69/49 64/70/50
f 44/56/39 53/55/33 71/71/51 62/72/52
f 41/41/30 50/40/29 68/73/53 59/74/54
f 45/75/55 38/76/56 56/77/57 63/78/58
f 24/79/8 13/80/7 38/76/56 45/75/55
f 32/81/24 20/82/21 43/66/46 52/65/38
f 17/34/4 18/83/3 41/84/30 39/35/25
f 29/85/59 28/86/22 49/62/43 48/61/42
f 25/47/35 36/87/27 54/88/60 47/48/36
f 30/89/28 29/85/59 48/61/42 50/90/29
f 36/91/27 24/92/8 45/93/55 54/94/60
f 20/95/21 21/96/15 42/97/61 43/98/46
f 13/80/7 14/99/11 37/100/62 38/76/56
f 28/101/22 16/102/18 40/103/26 49/104/43
f 14/105/11 26/106/34 46/107/37 37/108/62
f 21/96/15 22/109/14 44/110/39 42/97/61
f 58/111/63 57/112/64 66/113/45 67/114/44
f 56/115/57 55/116/65 64/117/50 65/118/49
f 61/67/47 60/119/66 69/120/67 70/68/48
f 57/112/64 59/74/54 68/73/53 66/113/45
f 63/121/58 56/115/57 65/118/49 72/122/68
f 60/119/66 62/72/52 71/71/51 69/120/67
f 38/76/56 37/100/62 55/123/65 56/77/57
f 50/90/29 48/61/42 66/64/45 68/124/53
f 40/36/26 39/35/25 57/125/64 58/126/63
f 54/94/60 45/93/55 63/121/58 72/122/68
f 51/44/32 52/51/38 70/127/48 69/128/67
f 39/35/25 41/84/30 59/129/54 57/125/64
f 53/45/33 51/44/32 69/128/67 71/130/51
f 43/98/46 42/97/61 60/131/66 61/132/47
f 37/108/62 46/107/37 64/117/50 55/116/65
f 47/48/36 54/88/60 72/133/68 65/69/49
f 42/97/61 44/110/39 62/134/52 60/131/66
f 49/104/43 40/103/26 58/111/63 67/114/44
f 73/135/69 75/136/41 76/137/40 77/138/70 78/139/71 79/140/72 80/141/73 81/142/74 82/143/75 83/144/76 84/145/77 74/146/78
f 34/30/23 35/29/19 83/147/76 82/148/75
f 31/32/16 32/31/24 80/149/73 79/150/72
f 28/27/22 29/151/59 77/152/70 76/59/40
f 35/29/19 36/37/27 84/153/77 83/147/76
f 25/154/35 26/52/34 73/155/69 74/156/78
f 32/31/24 33/157/31 81/158/74 80/149/73
f 29/151/59 30/58/28 78/159/71 77/152/70
f 36/37/27 25/154/35 74/156/78 84/153/77
f 26/52/34 27/28/10 75/60/41 73/155/69
f 33/157/31 34/30/23 82/148/75 81/158/74
f 30/58/28 31/57/16 79/160/72 78/159/71
