# Blender v2.79 (sub 0) OBJ File: 'Rocks.blend'
# www.blender.org
o Cube.006_Cube.014
v -4.089896 -0.201590 0.266481
v -0.112128 5.508670 -2.581853
v -0.090037 -0.283897 3.646505
v -0.728799 6.049401 -0.763758
v 2.470858 3.315666 -2.648803
v 2.898116 1.516032 2.232689
v -0.232391 1.432080 3.666361
v 3.089887 3.372198 0.182258
v 3.518023 2.114931 -0.183686
v 0.291390 3.520063 -3.419567
v 3.027983 0.162080 2.264539
v 3.337263 0.209187 0.983526
v -2.475863 0.883476 3.312128
v -2.837754 0.778206 2.090189
v -3.921272 1.081691 0.358383
v -3.642404 2.853502 0.195542
v -2.707710 3.610574 0.813610
v -2.429398 5.715240 0.717044
v 2.926061 2.675092 1.398678
v 3.533242 0.089863 -2.577885
v -4.180120 -0.127574 -1.187735
v 3.692193 1.426833 -2.448773
v -3.536505 1.016921 -2.588249
v 2.979721 3.390633 -1.421136
v -4.059194 1.399582 -1.188128
v -2.470665 3.873318 -1.669589
v -2.312108 5.591302 -1.397768
v -1.033794 0.066751 -4.451684
v -2.337681 -0.735665 3.441151
v -2.027885 6.489039 -0.509768
v -1.201172 0.476975 3.905767
v -2.643310 1.373563 -3.584275
v -0.857221 1.746122 -3.948172
v -0.902213 3.723678 -2.948179
v -1.786375 5.299824 -2.535750
v -1.540684 1.753340 3.565970
v -1.493848 3.727139 2.300463
v -3.188939 -0.804014 1.786294
v -1.215652 6.053918 0.767763
v -3.099672 -0.081775 -3.581801
v -3.713986 -0.214732 -2.374960
v 1.951872 4.128395 -0.282807
v 2.272519 1.009766 -4.189806
v 1.747351 2.295312 2.250829
v 1.193993 0.965766 3.411017
v 0.635792 3.287085 2.287231
v 1.101098 -0.340776 3.240351
v 1.187180 -0.105080 -3.564814
v 0.633038 4.757925 0.023925
v 1.265746 1.796942 -4.133371
v 0.061750 4.386384 1.160358
v 0.985691 5.519459 -1.533954
v 2.221558 0.142027 3.323955
v 3.230461 0.227958 -3.840651
v 2.067085 3.803832 1.178810
v 3.347059 0.104135 -1.251972
v -2.443787 2.855406 -2.600892
vt 0.623002 0.218251
vt 0.684005 0.182908
vt 0.714926 0.227586
vt 0.799709 0.036042
vt 0.703417 0.043148
vt 0.749105 0.019509
vt 0.752492 0.175835
vt 0.795960 0.141328
vt 0.822359 0.177864
vt 0.363029 0.207658
vt 0.425104 0.236940
vt 0.355707 0.245335
vt 0.846099 0.121848
vt 0.842985 0.059457
vt 0.909952 0.109313
vt 0.645330 0.059251
vt 0.597647 0.033123
vt 0.672013 0.110848
vt 0.583580 0.118789
vt 0.301996 0.253340
vt 0.360294 0.300254
vt 0.301794 0.335981
vt 0.415645 0.197492
vt 0.359321 0.155207
vt 0.406251 0.151138
vt 0.784662 0.104237
vt 0.502298 0.117063
vt 0.535036 0.051671
vt 0.525675 0.156057
vt 0.446516 0.111505
vt 0.479987 0.054127
vt 0.530245 0.008246
vt 0.444396 0.016224
vt 0.385912 0.041829
vt 0.572589 0.182678
vt 0.647682 0.151449
vt 0.453446 0.177498
vt 0.414737 0.074285
vt 0.370943 0.097942
vt 0.337057 0.059817
vt 0.833037 0.210540
vt 0.901734 0.165070
vt 0.252317 0.297864
vt 0.275887 0.274973
vt 0.261191 0.338511
vt 0.324898 0.112893
vt 0.300626 0.078432
vt 0.508466 0.219535
vt 0.587365 0.068624
vt 0.304438 0.148368
vt 0.297371 0.195652
vt 0.274192 0.106557
vt 0.250785 0.162589
vt 0.641533 0.010061
vt 0.506870 0.185068
vt 0.736033 0.135775
vt 0.238921 0.233033
vt 0.699737 0.005629
vt 0.454142 0.267894
vt 0.726035 0.086916
vt 0.774319 0.065885
vt 0.940797 0.144594
vn 0.2923 0.9538 -0.0692
vn 0.5119 0.7306 0.4517
vn 0.5389 0.8343 -0.1162
vn 0.8264 0.2080 0.5233
vn 0.3208 0.2516 0.9131
vn 0.4467 0.4773 0.7567
vn 0.5380 0.8130 0.2226
vn 0.7944 0.5878 0.1532
vn 0.8097 0.5699 -0.1394
vn -0.1573 0.3231 -0.9332
vn 0.1837 0.6999 -0.6901
vn 0.0560 0.4668 -0.8826
vn 0.9828 0.1479 0.1100
vn 0.9821 0.0480 0.1822
vn 0.9884 -0.1234 0.0880
vn 0.1723 0.3305 0.9279
vn -0.0988 -0.0226 0.9948
vn 0.2705 0.5934 0.7581
vn -0.2715 0.5437 0.7941
vn 0.1391 0.1854 -0.9727
vn 0.5959 0.5234 -0.6091
vn 0.9385 0.2007 -0.2810
vn -0.4464 0.5759 -0.6849
vn -0.8643 0.3497 -0.3615
vn -0.8765 0.2736 -0.3960
vn 0.7485 0.3941 0.5333
vn -0.7130 0.2197 0.6658
vn -0.7519 0.1480 0.6424
vn -0.6725 0.5674 0.4751
vn -0.9137 0.3364 0.2280
vn -0.8983 0.1194 0.4229
vn -0.6630 -0.0486 0.7470
vn -0.8629 0.0963 0.4960
vn -0.9405 0.1032 0.3237
vn 0.2158 0.8039 0.5541
vn 0.3769 0.7002 0.6063
vn -0.6892 0.5958 -0.4122
vn -0.9307 0.1323 0.3410
vn -0.9506 0.2498 -0.1843
vn -0.9858 0.0878 -0.1429
vn 0.6448 0.0985 -0.7580
vn 0.2391 0.1444 -0.9602
vn 0.9919 -0.1122 -0.0587
vn -0.8464 0.2502 -0.4700
vn -0.9131 0.0618 -0.4031
vn -0.2730 0.4053 0.8724
vn -0.5445 0.3208 -0.7750
vn -0.1148 0.2833 -0.9521
vn -0.6847 0.1436 -0.7145
vn 0.0123 0.2430 -0.9699
vn 0.1809 -0.1358 0.9741
vn -0.3508 0.9193 -0.1782
vn 0.4416 0.7546 0.4853
vn -0.0083 -0.2105 -0.9775
vn 0.1787 -0.1399 0.9739
vn 0.3888 0.4884 0.7812
vn 0.7519 0.2763 0.5985
s 1
f 4/1/1 49/2/2 52/3/3
f 11/4/4 45/5/5 53/6/6
f 42/7/7 8/8/8 24/9/9
f 34/10/10 2/11/11 10/12/12
f 9/13/13 12/14/14 56/15/15
f 45/5/5 7/16/16 31/17/17
f 46/18/18 37/19/19 7/16/16
f 50/20/20 5/21/21 22/22/22
f 35/23/23 57/24/24 26/25/25
f 8/8/8 19/26/26 9/13/13
f 37/19/19 17/27/27 13/28/28
f 17/27/27 18/29/29 16/30/30
f 13/28/28 17/27/27 14/31/31
f 17/27/27 16/30/30 14/31/31
f 29/32/32 14/31/31 38/33/33
f 14/31/31 1/34/34 38/33/33
f 49/2/2 39/35/35 51/36/36
f 51/36/36 37/19/19 46/18/18
f 27/37/37 26/25/25 16/30/30
f 26/25/25 27/37/37 35/23/23
f 15/38/38 16/30/30 25/39/39
f 15/38/38 21/40/40 1/34/34
f 5/41/21 24/9/9 22/42/22
f 24/9/9 9/13/13 22/42/22
f 54/43/41 43/44/42 22/22/22
f 54/43/41 22/22/22 20/45/43
f 21/40/40 23/46/44 41/47/45
f 35/23/23 4/48/1 2/11/11
f 7/16/16 37/19/19 36/49/46
f 36/49/46 37/19/19 13/28/28
f 7/16/16 36/49/46 31/17/17
f 31/17/17 36/49/46 13/28/28
f 31/17/17 13/28/28 29/32/32
f 32/50/47 34/10/10 33/51/48
f 40/52/49 23/46/44 32/50/47
f 32/50/47 28/53/50 40/52/49
f 3/54/51 31/17/17 29/32/32
f 4/48/1 30/55/52 39/35/35
f 42/7/7 55/56/53 8/8/8
f 50/20/20 43/44/42 48/57/54
f 45/5/5 47/58/55 53/6/6
f 33/51/48 10/12/12 50/20/20
f 52/59/3 10/12/12 2/11/11
f 55/56/53 51/36/36 46/18/18
f 42/7/7 51/36/36 55/56/53
f 46/18/18 7/16/16 44/60/56
f 45/5/5 44/60/56 7/16/16
f 45/5/5 3/54/51 47/58/55
f 11/4/4 6/61/57 45/5/5
f 6/61/57 44/60/56 45/5/5
f 19/26/26 55/56/53 44/60/56
f 5/41/21 52/3/3 24/9/9
f 52/3/3 42/7/7 24/9/9
f 10/12/12 52/59/3 5/21/21
f 45/5/5 31/17/17 3/54/51
f 34/10/10 35/23/23 2/11/11
f 41/47/45 23/46/44 40/52/49
f 34/10/10 10/12/12 33/51/48
f 9/13/13 24/9/9 8/8/8
f 50/20/20 22/22/22 43/44/42
f 23/46/44 57/24/24 32/50/47
f 35/23/23 32/50/47 57/24/24
f 11/4/4 19/26/26 6/61/57
f 12/14/14 9/13/13 19/26/26
f 12/14/14 19/26/26 11/4/4
f 37/19/19 18/29/29 17/27/27
f 14/31/31 16/30/30 15/38/38
f 29/32/32 13/28/28 14/31/31
f 14/31/31 15/38/38 1/34/34
f 49/2/2 4/1/1 39/35/35
f 51/36/36 39/35/35 37/19/19
f 18/29/29 27/37/37 16/30/30
f 25/39/39 16/30/30 26/25/25
f 25/39/39 26/25/25 23/46/44
f 15/38/38 25/39/39 21/40/40
f 22/42/22 9/13/13 56/15/15
f 21/40/40 25/39/39 23/46/44
f 20/62/43 22/42/22 56/15/15
f 2/11/11 4/48/1 52/59/3
f 35/23/23 27/37/37 4/48/1
f 39/35/35 18/29/29 37/19/19
f 30/55/52 18/29/29 39/35/35
f 32/50/47 35/23/23 34/10/10
f 32/50/47 33/51/48 28/53/50
f 4/48/1 27/37/37 30/55/52
f 27/37/37 18/29/29 30/55/52
f 44/60/56 55/56/53 46/18/18
f 28/53/50 33/51/48 48/57/54
f 33/51/48 50/20/20 48/57/54
f 42/7/7 49/2/2 51/36/36
f 52/3/3 49/2/2 42/7/7
f 6/61/57 19/26/26 44/60/56
f 8/8/8 55/56/53 19/26/26
f 50/20/20 10/12/12 5/21/21
f 48/57/54 43/44/42 54/43/41
f 23/46/44 26/25/25 57/24/24
